<?xml version="1.0" encoding="UTF-8"?>
<!DOCTYPE svg PUBLIC "-//W3C//DTD SVG 1.1//EN" "http://www.w3.org/Graphics/SVG/1.1/DTD/svg11.dtd">
<!-- Creator: CorelDRAW -->
<svg xmlns="http://www.w3.org/2000/svg" xml:space="preserve" width="18.327mm" height="20.5234mm" style="shape-rendering:geometricPrecision; text-rendering:geometricPrecision; image-rendering:optimizeQuality; fill-rule:evenodd; clip-rule:evenodd"
viewBox="0 0 6.28405 7.03717"
 xmlns:xlink="http://www.w3.org/1999/xlink">
 <defs>
  <style type="text/css">
   <![CDATA[
    .fil0 {fill:#424242}
   ]]>
  </style>
 </defs>
 <g id="Camada_x0020_1">
  <metadata id="CorelCorpID_0Corel-Layer"/>
  <path class="fil0" d="M5.94189 1.87846c-0.0539701,0.193216 -0.111918,0.385163 -0.172403,0.576424 -0.0766691,-0.00462895 -0.153372,-0.00908645 -0.229836,-0.013544 0.00147441,-0.252089 0.00315454,-0.504315 0.00483468,-0.756404 0.000514328,-0.0786235 0.00531472,-0.162939 0.00990938,-0.248077 0.0185158,-0.123164 0.0389517,-0.314254 0.0968993,-0.370659 0.0603821,-0.0586333 0.186289,0.00353172 0.250889,0.0347343 0.115655,0.0561303 0.179157,0.0920646 0.17854,0.24146 -0.000582905,0.167019 -0.094362,0.375562 -0.138834,0.536066zm-0.104271 2.08179c-0.0751261,0.785995 -0.123404,1.75142 -0.460769,2.47971 -0.286206,0.617639 -1.26843,0.399667 -1.82607,0.398947 -0.718858,-0.000857213 -1.42986,0.0613421 -2.14732,-0.021156 -0.228601,-0.026265 -0.465329,-0.00171443 -0.622576,-0.229356 -0.0919275,-0.133177 -0.117712,-0.40001 -0.157007,-0.556537 -0.0903502,-0.358418 -0.161876,-0.721327 -0.221127,-1.08612 -0.0662797,-0.407313 -0.115998,-0.817095 -0.15543,-1.22777 -0.0153613,-0.159202 -0.182792,-1.05578 -0.0394318,-1.1823 1.56164,-0.0560274 3.12252,-0.0404947 4.68292,0.0381288 0.214749,0.0107323 0.429189,0.0225961 0.64363,0.03518 0.289978,0.0170414 0.359275,-0.0315797 0.38866,0.258021 0.0352143,0.345217 -0.0523585,0.747181 -0.0854812,1.09325zm-5.55474 -2.35428c-0.0192016,-0.0961793 -0.0601077,-0.231173 -0.0577076,-0.329513 0.00545187,-0.222738 0.123747,-0.244991 0.31086,-0.251129 0.26313,-0.00857213 0.274479,0.094842 0.324918,0.29735 0.0276022,0.111506 0.0554102,0.22291 0.0831153,0.334313 0.0568503,0.228739 0.113804,0.457374 0.170654,0.686113 -0.211149,0.00363458 -0.422503,0.00884643 -0.633823,0.0152584 -0.0785893,-0.247632 -0.146961,-0.497526 -0.198016,-0.752393zm0.94362 0.405702c0.0209503,-0.196919 0.0210531,-0.393735 0.0242077,-0.591511 0.00315454,-0.194519 -0.0375116,-0.491594 0.247734,-0.410776 0.155293,0.0439236 0.15543,0.0901102 0.177786,0.249175 0.0158756,0.111883 0.000857213,0.235871 -0.000582905,0.349571 -0.00277737,0.242763 -0.0121038,0.485182 -0.0245506,0.727602 -0.120696,0.000822924 -0.24146,0.00339456 -0.362189,0.00493754 -0.0243791,-0.0986823 -0.0483811,-0.197502 -0.0725545,-0.296458 0.00497183,-0.00956649 0.0089493,-0.0201959 0.0101494,-0.0325398zm0.172163 -1.49704c0.0114524,-0.0923732 0.0343228,-0.0728631 0.108832,-0.0754004 0.0595248,-0.0020916 0.12073,0.00459466 0.180255,0.00689199 0.0914474,0.00346314 0.19037,0.0164928 0.282194,0.0118295 -0.000205731,0.00421749 -0.000480039,0.00850355 -0.000857213,0.0127553 -0.013544,0.0444036 -0.0077492,0.104203 -0.014024,0.150424 0,0.000171443 0,0.00024002 0,0.000411462 -0.0564732,0.115587 -0.00109723,0.293715 0.0165613,0.401038 0.0716287,0.436047 0.130296,0.872951 0.168494,1.31315 -0.106534,-0.000274308 -0.213103,-0.000377174 -0.319809,0 0.0125839,-0.24242 0.0219104,-0.484839 0.0247906,-0.727602 0.0020916,-0.185809 0.0569875,-0.471981 -0.0162185,-0.640509 -0.0568161,-0.130605 -0.263679,-0.159956 -0.442939,-0.148504 -0.00168014,-0.101631 0.00024002,-0.203468 0.012721,-0.304482zm1.34545 0.345285c0.00157727,0.00843497 0.00517756,0.0143669 0.00833211,0.020916 -0.00651482,0.01759 -0.0124467,0.0366887 -0.0175214,0.0590105 -0.101734,0.454288 -0.131874,0.926544 -0.236488,1.3834 -0.0012001,0.0050747 0,0.00932647 -0.000377174,0.0141612 -0.062988,-0.000480039 -0.125805,-0.00133725 -0.188827,-0.00168014 -0.0355229,-0.411291 -0.0878129,-0.819872 -0.152995,-1.22753 -0.0125839,-0.0780749 -0.0785207,-0.29711 -0.054073,-0.356875 0.0302425,-0.0746118 0.095322,-0.0623365 0.182518,-0.079515 0.262856,-0.0518099 0.406079,-0.118535 0.459432,0.188107zm0.779618 -0.691565c0.0525986,0.107426 0.0778692,0.239574 0.101083,0.358589 -0.0396375,-0.00147441 -0.0773892,-0.00380602 -0.112123,-0.00816066 -0.0331227,-0.00421749 -0.0764291,0.0290767 -0.0816409,0.0621308 -0.014264,0.0902473 -0.0192359,0.126627 -0.0231105,0.200931 -0.0893558,-0.00702914 -0.185912,-0.000994367 -0.258844,-0.00819495 -0.0989223,-0.00987509 -0.183272,-0.0276365 -0.250889,-0.0194416 -0.0123439,-0.0872642 -0.0259907,-0.184644 -0.0718344,-0.253255 0.00024002,-0.00757776 0.00130296,-0.0147098 -0.000617193,-0.0230419 -0.0166985,-0.0742346 -0.0246877,-0.147372 -0.0285623,-0.221949 0.147955,-0.0441979 0.293475,-0.0555131 0.450585,-0.0625079 0.0890472,-0.00397747 0.184712,-0.0236248 0.275954,-0.0250992zm-0.695782 1.3545c0.0177957,-0.113701 0.0331227,-0.227779 0.0480039,-0.341959 0.00740632,-0.0560274 -0.000857213,-0.195993 0.0321626,-0.239197 0.0254078,-0.033157 0.0160813,-0.00432035 0.0811609,-0.0179672 0.0696057,-0.0147098 0.276777,0.0107323 0.346074,0.0336713 0.189958,0.0625765 0.105026,0.235219 0.0724859,0.393803 -0.0671369,0.328278 -0.134411,0.656831 -0.201651,0.985246 -0.000857213,0.00421749 0.00024002,0.00761205 0,0.0117267 -0.1795,-0.0038746 -0.358898,-0.0062748 -0.538398,-0.00846926 0.0615479,-0.270742 0.117198,-0.542513 0.160162,-0.816855zm1.19523 -0.307259c-0.0266422,0.382145 -0.0505755,0.754827 -0.122547,1.13272 -0.0012001,0.00665197 0.000102866,0.0123439 0.00024002,0.0184815 -0.175249,-0.00569189 -0.350326,-0.0100122 -0.525471,-0.014264 0.0495126,-0.241563 0.0988195,-0.482988 0.148298,-0.72455 0.0394661,-0.192084 0.148195,-0.461832 0.133657,-0.660019 -0.00517756,-0.07012 -0.0365173,-0.113804 -0.0819838,-0.14168l0 0c0.00606907,-0.151761 0.321249,-0.152207 0.418766,-0.0774234 0.117472,0.0902131 0.0377174,0.343845 0.0290424,0.466735zm0.623914 -0.669586c0.0664168,0.0068577 0.208543,-0.0100465 0.240808,0.0455694 0.0306539,0.0526671 -0.00737203,0.137463 -0.0243105,0.191158 -0.000582905,0.00185158 0,0.00342885 -0.000480039,0.00531472 -0.0879157,0.0190644 -0.134857,0.0796179 -0.149155,0.240225 -0.00891501,0.101083 -0.0150869,0.202714 -0.0204359,0.30455 -0.000960078,0.0024002 -0.00288023,0.00401176 -0.00373745,0.0065491 -0.115244,0.341925 -0.162699,0.701577 -0.263953,1.04717 -0.119495,-0.00497183 -0.239025,-0.00922361 -0.358383,-0.0134411 0.0939848,-0.498246 0.161842,-1.03472 0.1795,-1.53904 0.00301739,-0.0871957 -0.0211903,-0.148229 -0.0624394,-0.192187 0.000651482,-0.00253735 0.00205731,-0.00438893 0.00243448,-0.00702914 0.00630908,-0.0480382 0.00521185,-0.112878 0.0164585,-0.166745 0.145623,0.0127553 0.299236,0.0630908 0.443693,0.0779035zm0.0355572 1.85141c-0.027808,-0.00123439 -0.0556502,-0.00277737 -0.0834582,-0.00397747 0.0293852,-0.104546 0.0553759,-0.20988 0.0789664,-0.315831 0.000651482,0.106774 0.00243448,0.21348 0.00449179,0.319809zm0.696742 -1.36935c0.0438207,0.0627823 0.0106294,0.303556 0,0.430321 -0.000480039,0.00192016 -0.000960078,0.00435464 -0.00133725,0.0062748 -0.00325741,0.0133039 -0.00339456,0.025785 -0.0012001,0.0368944 -0.000137154,0.00291452 -0.000617193,0.00726916 -0.000617193,0.00980651 -0.00202302,0.306745 -0.00397747,0.613387 -0.00603478,0.920166 -0.172608,-0.00946363 -0.345251,-0.0177957 -0.517859,-0.0258878 -0.00517756,-0.278217 -0.00363458,-0.556537 0.00521185,-0.834754 0.00462895,-0.143977 0.000617193,-0.294675 0.0193387,-0.437658 0.0264021,-0.200142 0.0414891,-0.191261 0.24146,-0.172883 0.105266,0.00966936 0.220989,0.0102523 0.261038,0.0677198zm0.78675 -0.0135782c-0.118913,-0.0643252 -0.427029,-0.21156 -0.569258,-0.148709 -0.0274651,0.0122067 -0.0506784,0.0331913 -0.0707715,0.059422 -0.0659025,-0.136811 -0.242763,-0.119598 -0.407759,-0.134205 -0.027808,-0.00250306 -0.0532158,-0.00466324 -0.0780406,-0.00661768 0.0417634,-0.137085 0.0823953,-0.3207 -0.0809209,-0.378477 -0.118638,-0.0419348 -0.272628,-0.0231447 -0.397712,-0.0395004 -0.136057,-0.0177614 -0.280274,-0.0720744 -0.416468,-0.0728288 -0.0279108,-0.000137154 -0.0604849,0.0158413 -0.0730688,0.0420034 -0.0324026,0.0668969 -0.0395346,0.146 -0.0465638,0.22243 -0.069057,-0.0171443 -0.147818,-0.0234533 -0.227401,-0.0263336 -0.0336027,-0.164345 -0.0542101,-0.532226 -0.269508,-0.531643 -0.272902,0.000754347 -0.585099,0.0172471 -0.8424,0.112466 -0.0350429,0.0129611 -0.0625422,0.0421406 -0.0621651,0.0816066 0.000720059,0.0769091 0.00870928,0.150252 0.0203331,0.223801 -0.114661,0.00733774 -0.264913,0.0631937 -0.343674,0.078555 -0.0391575,0.00768063 -0.0990595,0.0115209 -0.15759,0.0205388 0.00970365,-0.0760862 0.00929218,-0.154435 -0.0352143,-0.195856 -0.0325398,-0.0304139 -0.0816409,-0.0299682 -0.123507,-0.0328827 -0.0985452,-0.00675484 -0.198016,-0.00768063 -0.296698,-0.0114524 -0.121587,-0.00469753 -0.314151,-0.0537644 -0.404982,0.05325 -0.0979965,0.115415 -0.0710115,0.370762 -0.0666569,0.513333 -0.0150184,0.00346314 -0.0291452,0.0071663 -0.0417291,0.0110066 -0.0256478,0.00781778 -0.055033,0.0304139 -0.0591477,0.0591134 -0.0274651,0.193696 -0.0312368,0.388592 -0.0345971,0.583693 -0.0366544,-0.147681 -0.0727259,-0.295498 -0.111918,-0.442356 -0.0758119,-0.2848 -0.203811,-0.238922 -0.477776,-0.192839 -0.265633,0.0446779 -0.483262,0.0262307 -0.447568,0.326495 0.047421,0.39905 0.142503,0.791722 0.262376,1.17493 -0.0430321,0.00140583 -0.0861327,0.00205731 -0.129199,0.00363458 -0.0024002,0.000102866 -0.00397747,0.0012001 -0.00603478,0.00144012 -0.00373745,0.00024002 -0.0077492,0.00205731 -0.0114866,0.00277737 -0.00702914,0.00168014 -0.0142983,0.00277737 -0.0200931,0.00593191 -0.001783,0.00068577 -0.00339456,0.000480039 -0.00521185,0.00144012 -0.155773,0.0815381 -0.131496,0.174426 -0.133279,0.337845 -0.0038746,0.33085 0.0457066,0.672089 0.0773892,1.00146 0.0621993,0.647024 0.148675,1.29333 0.283532,1.92945 0.0804751,0.379471 0.118913,1.15206 0.555851,1.29696 0.24386,0.081058 0.609032,0.061925 0.868494,0.0786235 0.352623,0.0227333 0.705212,0.0140583 1.0578,0.00181729 0.580642,-0.019853 1.16704,0.0314426 1.74573,-0.00521185 0.378374,-0.0240705 0.739569,-0.0856184 0.919686,-0.452608 0.261656,-0.532878 0.328038,-1.23819 0.407656,-1.81832 0.0999167,-0.727842 0.148401,-1.46134 0.196679,-2.19402 0.00315454,-0.047661 -0.0414891,-0.0818809 -0.0846926,-0.0845555 -0.028528,-0.00181729 -0.0568503,-0.00325741 -0.0853784,-0.0050747 0.106226,-0.338359 0.203708,-0.679187 0.287886,-1.02382 0.0220132,-0.0900073 0.0517414,-0.171854 0.0529757,-0.243654l0 -0.00833211c-0.000960078,-0.0681998 -0.029591,-0.127039 -0.117918,-0.174734z"/>
  <path class="fil0" d="M4.57594 5.03318c-0.230282,0.406422 -0.620896,0.494989 -1.05732,0.504658 -0.64699,0.014504 -1.75927,0.0570904 -1.95561,-0.734974 -0.10026,-0.404982 0.0677541,-0.816855 0.401621,-1.06819 0.327592,-0.246774 0.72503,-0.229596 1.11537,-0.244237 0.536958,-0.019133 1.01827,0.0620622 1.42832,0.443453 0.33301,0.309762 0.27712,0.729385 0.0676169,1.09929zm-1.4959 -1.71209c-0.429189,0.0160813 -0.874357,0.00483468 -1.23058,0.282092 -0.305751,0.237928 -0.500886,0.626588 -0.501367,1.01497 -0.00144012,1.07258 1.41306,1.10598 2.17053,1.08904 0.407519,-0.0089493 0.817575,-0.0814009 1.08623,-0.415028 0.206383,-0.256204 0.399907,-0.69033 0.325775,-1.02248 -0.171785,-0.770668 -1.2013,-0.971702 -1.85058,-0.948591z"/>
  <path class="fil0" d="M1.97831 4.37806c0.0136811,-0.107803 -0.155704,-0.106809 -0.169385,0 -0.0343228,0.26937 0.00157727,0.530889 0.183889,0.741249 0.0714915,0.0824981 0.19085,-0.0377516 0.119735,-0.119735 -0.151658,-0.175043 -0.162322,-0.401621 -0.134239,-0.621513z"/>
  <path class="fil0" d="M1.97481 4.13938c0.108969,0 0.109072,-0.169317 -3.42885e-005,-0.169317 -0.108969,-3.42885e-005 -0.109243,0.169351 3.42885e-005,0.169317z"/>
 </g>
</svg>
