<?xml version="1.0" encoding="UTF-8"?>
<!DOCTYPE svg PUBLIC "-//W3C//DTD SVG 1.1//EN" "http://www.w3.org/Graphics/SVG/1.1/DTD/svg11.dtd">
<!-- Creator: CorelDRAW -->
<svg xmlns="http://www.w3.org/2000/svg" xml:space="preserve" width="20.6332mm" height="9.9562mm" style="shape-rendering:geometricPrecision; text-rendering:geometricPrecision; image-rendering:optimizeQuality; fill-rule:evenodd; clip-rule:evenodd"
viewBox="0 0 3.02334 1.45886"
 xmlns:xlink="http://www.w3.org/1999/xlink">
 <defs>
  <style type="text/css">
   <![CDATA[
    .fil0 {fill:#424242}
   ]]>
  </style>
 </defs>
 <g id="Camada_x0020_1">
  <metadata id="CorelCorpID_0Corel-Layer"/>
  <path class="fil0" d="M2.89813 0.566243c-0.0452332,0.0559444 -0.140711,0.10339 -0.205945,0.13085 -0.00454237,0.00190486 -0.00805904,0.00470355 -0.011224,0.00764876 -0.0658937,-0.0729417 -0.172903,-0.112958 -0.286624,-0.123552 -0.150162,-0.0140081 -0.29521,0.0247632 -0.443614,0.0394893 -0.133004,0.0131875 -0.268395,0.0114292 -0.401809,0.00543619 -0.302082,-0.0134952 -0.62692,-0.0766635 -0.928079,-0.0412037 -0.123377,0.0145795 -0.239354,0.0653369 -0.305233,0.153679 -0.00126014,-0.00026375 -0.00219792,-0.000981738 -0.00353133,-0.00108431 -0.239954,-0.0252761 -0.323446,-0.321776 -0.0681209,-0.396886 0.0847811,-0.0249244 0.19116,-0.0131289 0.278066,-0.00950967 0.310508,0.0127626 0.619623,0.0401047 0.930644,0.042332 0.350173,0.00247632 0.69573,-0.0357235 1.04419,-0.0620253 0.102863,-0.00780994 0.240409,-0.0313277 0.340429,0.00376577 0.103449,0.036295 0.125662,0.170793 0.0608531,0.251061zm-0.229463 0.366496c-0.0881366,0.444346 -0.852764,0.44927 -1.19967,0.453753 -0.316354,-0.00505522 -0.99412,-0.00630071 -1.12035,-0.373471 -0.181446,-0.527662 0.944183,-0.325966 1.20027,-0.314493 0.156624,0.00697473 0.314288,0.0065205 0.469886,-0.0138029 0.196069,-0.0255838 0.722544,-0.118732 0.649867,0.248013zm-1.58063 -0.814198c0.146792,0.0210414 0.293862,0.0363536 0.442163,0.0412037 0.167789,0.00548015 0.33574,-0.000615418 0.50265,-0.0182427 0.127992,-0.0135978 0.500115,-0.122043 0.53723,0.077484 0.000630071,0.00310639 0.00206605,0.0052164 0.00316501,0.00775133 -0.103229,0.00728244 -0.207029,0.0235178 -0.300588,0.0320457 -0.306332,0.0279722 -0.611725,0.0465813 -0.91961,0.0409399 -0.252145,-0.00464494 -0.503324,-0.023254 -0.755059,-0.0371595 -0.0673003,-0.00372181 -0.143392,-0.011268 -0.218224,-0.0109603 0.0382145,-0.266168 0.556601,-0.154763 0.708273,-0.133062zm1.93503 0.35895c0.00526036,-0.113515 -0.0722823,-0.208099 -0.178251,-0.23509 -0.065586,-0.0166895 -0.136462,-0.0209389 -0.208773,-0.0189754 0.00351667,-0.0067696 0.00552411,-0.0145209 0.00382438,-0.0236643 -0.0334377,-0.179629 -0.219792,-0.174105 -0.368093,-0.16014 -0.282755,0.0266095 -0.556982,0.0607359 -0.84217,0.0432111 -0.248219,-0.0152536 -1.07793,-0.260263 -1.12264,0.172346 -0.0393721,0.00376577 -0.0775573,0.0107405 -0.112695,0.0236203 -0.0955802,0.0350349 -0.191073,0.159628 -0.194179,0.265333 -0.00445445,0.152638 0.149048,0.237112 0.278608,0.260732 -0.0164258,0.0427422 -0.0230928,0.0916972 -0.0169826,0.147012 0.0543179,0.49314 0.844866,0.501199 1.20727,0.506987 0.371727,-0.00480612 1.19491,-0.0203674 1.27421,-0.519501 0.0110043,-0.0693664 0.00149459,-0.127875 -0.0226386,-0.17642 0.11646,-0.0498928 0.295884,-0.1437 0.302507,-0.285451z"/>
  <path class="fil0" d="M2.51747 0.388431c-0.0540102,0.00351667 -0.101573,0.0493213 -0.154455,0.0569701 -0.101163,0.0146675 -0.158177,-0.0596516 -0.249625,-0.0705679 -0.0859094,-0.0102863 -0.157957,0.0448229 -0.233595,0.0796673 -0.103888,0.0478121 -0.118424,0.00816161 -0.210385,-0.0281773 -0.0360752,-0.0142132 -0.0504936,-0.0199571 -0.0860559,-0.0161327 -0.0425957,0.00460098 -0.0895872,0.0353572 -0.128197,0.0523691 -0.100284,0.0441489 -0.139524,0.0305951 -0.233859,-0.0184479 -0.0755206,-0.0392402 -0.0984668,-0.0604868 -0.180874,-0.0333498 -0.0723116,0.0237815 -0.13315,0.0734545 -0.213579,0.0564426 -0.064824,-0.0137443 -0.118483,-0.0788174 -0.182266,-0.0904078 -0.0900561,-0.0162353 -0.172126,0.0694836 -0.2435,0.111654 -0.0400901,0.0236203 -0.00372181,0.0862318 0.0365148,0.0624503 0.0420242,-0.0247632 0.0865395,-0.0693224 0.132388,-0.0849277 0.0776892,-0.026375 0.129443,0.0251149 0.195967,0.0534974 0.0876677,0.0374819 0.132022,0.0283239 0.220979,-0.00754619 0.130835,-0.0526182 0.142367,-0.0256864 0.265128,0.0281187 0.070099,0.0307562 0.10509,0.0384636 0.176581,0.0133927 0.0448229,-0.0157225 0.0987892,-0.0614685 0.145253,-0.0643551 0.064106,-0.00404417 0.112592,0.0686923 0.170163,0.0762972 0.0681942,0.00898217 0.13104,-0.0289979 0.190589,-0.0575416 0.0577027,-0.0275473 0.11523,-0.0702895 0.18149,-0.0601644 0.0582156,0.00899682 0.107273,0.0612487 0.166148,0.0733519 0.0777478,0.0160155 0.284514,-0.110936 0.321307,-0.00398556 0.015107,0.0437826 0.0850449,0.0249684 0.0697913,-0.0192245 -0.025745,-0.0748612 -0.0751689,-0.114761 -0.155906,-0.109383z"/>
  <path class="fil0" d="M0.898378 1.17962c-0.070143,0.00801508 -0.162617,-0.0301848 -0.224349,-0.061615 -0.0801069,-0.0408374 -0.126747,-0.100958 -0.16861,-0.178647 -0.0220671,-0.0409985 -0.0845906,-0.00449841 -0.0624649,0.0365441 0.0477242,0.0886495 0.10361,0.157869 0.194589,0.204597 0.0741285,0.0379947 0.176376,0.0811619 0.260835,0.0715496 0.0457461,-0.00527501 0.0462589,-0.0777038 0,-0.0724288z"/>
  <path class="fil0" d="M1.05273 1.19586c-0.0465666,0 -0.0466252,0.0723116 0,0.0723116 0.0465813,0 0.0466252,-0.0723116 0,-0.0723116z"/>
 </g>
</svg>
