<?xml version="1.0" encoding="UTF-8"?>
<!DOCTYPE svg PUBLIC "-//W3C//DTD SVG 1.1//EN" "http://www.w3.org/Graphics/SVG/1.1/DTD/svg11.dtd">
<!-- Creator: CorelDRAW -->
<svg xmlns="http://www.w3.org/2000/svg" xml:space="preserve" width="20.3451mm" height="17.1932mm" style="shape-rendering:geometricPrecision; text-rendering:geometricPrecision; image-rendering:optimizeQuality; fill-rule:evenodd; clip-rule:evenodd"
viewBox="0 0 32.8213 27.7366"
 xmlns:xlink="http://www.w3.org/1999/xlink">
 <defs>
  <style type="text/css">
   <![CDATA[
    .fil0 {fill:#424242}
   ]]>
  </style>
 </defs>
 <g id="Camada_x0020_1">
  <metadata id="CorelCorpID_0Corel-Layer"/>
  <path class="fil0" d="M30.2849 17.5928c-0.492842,-0.110345 -0.78032,-0.507522 -1.34092,-0.374915 -0.406373,0.0961486 -0.611253,0.533173 -0.923736,0.762574 -0.599638,0.440412 -1.01182,0.688688 -1.87296,0.453641 -0.321517,-0.0882437 -0.61577,-0.355233 -0.94003,-0.461545 -1.45304,-0.478162 -2.27369,0.326679 -3.50119,1.0044 -1.55709,0.859852 -2.96221,0.293608 -4.38331,-0.489454 -0.625934,-0.344909 -1.19056,-0.62432 -1.92249,-0.567373 -0.929866,0.0727567 -1.62775,0.554306 -2.59004,0.606091 -1.26752,0.0682397 -1.28107,-0.484292 -2.33741,-0.775641 -1.04602,-0.288123 -1.73809,0.423312 -2.52116,1.00891 -0.858078,0.64255 -0.89744,0.723373 -2.09543,0.501392 -1.54741,-0.286832 -0.828071,-0.199073 -1.51724,-1.00553 -0.191813,-0.224239 -0.449607,-0.430894 -0.73644,-0.497359 -0.550918,-0.128091 -0.997138,0.328938 -1.52015,0.344263 -2.31111,0.0693689 -0.269087,-1.90377 0.679009,-2.41081 0.946967,0.281186 2.15124,0.310224 2.9122,0.366526 3.6793,0.273765 7.42167,0.125187 11.1102,0.158742 3.37714,0.0495262 6.74798,0.0825974 10.12,-0.168905 1.06667,-0.0796936 2.36354,-0.189555 3.37085,-0.663683 0.37798,0.183263 1.47062,0.717081 1.59242,1.13087 0.281186,0.953742 -0.961324,1.2167 -1.5821,1.0778zm-6.71556 4.01178c-2.51035,0.0290382 -4.99973,0.337972 -7.50717,0.405244 -2.35096,0.0630773 -4.70386,-0.035975 -7.05369,-0.12067 -1.15523,-0.0422666 -2.3116,-0.0825974 -3.46699,-0.122928 -1.99702,-0.0711435 -2.50696,-1.34205 -2.34532,-3.11596 0.714823,0.116637 0.659005,0.678364 1.08183,1.18718 1.21751,1.46368 3.09773,0.381368 4.23763,-0.514459 0.79742,-0.626579 1.25154,-1.01182 2.27595,-0.511556 0.376689,0.183747 0.654972,0.508168 1.05973,0.657876 0.899215,0.333455 1.46707,-0.0677557 2.31676,-0.306191 2.12963,-0.597702 2.0659,-0.214076 3.65252,0.562856 0.400888,0.195685 0.818392,0.357331 1.25671,0.4438 1.08538,0.215205 2.0801,0.0222626 3.03045,-0.50478 1.20266,-0.667071 1.48256,-1.32995 3.22356,-0.762574 0.319258,0.104053 0.588991,0.351684 0.915025,0.451866 0.735472,0.225368 1.27655,0.140512 1.87812,-0.326034 0.48655,-0.37798 0.740957,-0.730794 1.29123,-0.772899 2.01831,3.65365 -3.98887,3.32761 -5.84635,3.34923zm7.37843 1.62243c0.277798,0.754669 0.117282,2.07913 -0.518976,2.61408 -0.863885,0.726115 -2.71749,0.771124 -3.77657,0.842268 -3.48764,0.234886 -7.00304,0.266828 -10.4979,0.25489 -3.22517,-0.0108086 -6.47825,-0.0198427 -9.69939,-0.201493 -1.37028,-0.0767898 -4.00823,0.0540432 -4.53576,-1.42045 -0.617545,-1.72664 0.329422,-2.75104 1.97427,-2.88365 0.615125,0.176326 1.32543,0.118895 1.95717,0.141158 3.97516,0.140512 7.97775,0.413632 11.9518,0.154709 2.04606,-0.133253 4.07373,-0.320388 6.12657,-0.331196 1.54064,-0.00855012 3.03562,0.221981 4.49317,-0.338617 1.00908,0.016455 2.07445,-0.0546885 2.52567,1.1683zm-28.69 -13.0457c1.10119,-3.12967 3.76173,-6.53907 6.75928,-8.03583 2.70571,-1.35076 6.46922,-1.70341 9.43756,-1.22541 4.21892,0.679493 8.86567,3.20372 11.1211,6.91092 0.802421,1.31914 1.3977,2.9485 1.48595,4.50156 0.145836,2.5502 -2.49212,2.80686 -4.4801,2.94173 -3.26776,0.221981 -6.52649,0.193588 -9.7978,0.145191 -3.02481,-0.0274249 -6.05204,-0.0290382 -9.0762,-0.0837267 -1.4853,-0.0267796 -4.5769,0.273765 -5.55403,-1.06538 -0.763704,-1.04537 -0.262957,-3.04643 0.104215,-4.08906zm28.7858 4.70483c0.423796,-0.375076 0.727728,-0.875178 0.826136,-1.55935 0.630128,-4.39025 -3.1779,-8.73871 -6.72798,-10.6981 -4.34733,-2.39936 -8.92197,-3.27567 -13.8193,-2.12914 -2.9877,0.699658 -5.10152,2.4121 -7.01368,4.75 -1.54564,1.8899 -3.30374,4.39412 -3.32939,6.95383 -0.00790483,0.795 0.171325,2.38468 0.734181,2.94237 0.0495262,0.0488809 0.116153,0.0864692 0.173584,0.129704 -1.03795,0.670943 -2.36354,1.96233 -1.71583,3.11708 0.296512,0.529301 0.99133,0.637388 1.52354,0.604478 0.221981,-0.0137125 0.458642,-0.115023 0.692076,-0.208429 -0.0790483,0.936158 -0.05243,2.15189 0.508652,2.9435 -0.795484,0.134221 -1.57242,0.438154 -1.85473,1.18089 -0.370398,0.971488 -0.0813068,3.22065 0.805325,3.90579 0.454286,0.350071 1.05747,0.30732 1.59581,0.374592 1.28397,0.159871 2.54003,0.334584 3.83755,0.369914 2.9577,0.0795323 5.91652,0.162775 8.87471,0.172454 2.98286,0.00903409 5.96492,-0.0506554 8.94424,-0.18165 1.72616,-0.0756605 4.20908,0.0200041 5.73262,-1.02489 1.06538,-0.730794 1.21734,-2.34419 0.884373,-3.51426 -0.327163,-1.14862 -1.1262,-1.52692 -2.08639,-1.66582 0.811132,-0.713693 1.13087,-1.71583 0.764994,-2.8359 0.120186,0.0659811 0.245211,0.124057 0.402824,0.129704 0.593669,0.0216173 1.32156,-0.450737 1.67728,-0.895666 0.982296,-1.23106 -0.319904,-2.25772 -1.43061,-2.86106z"/>
  <path class="fil0" d="M6.2603 14.2811c0.510426,-0.020972 0.51333,-0.817747 0,-0.796613 -0.890665,0.037427 -2.54519,0.182618 -2.3921,-1.12184 0.10486,-0.890019 0.742732,-1.78859 1.33753,-2.41533 0.352814,-0.372172 -0.209397,-0.936642 -0.563502,-0.563986 -0.805164,0.849043 -1.92071,2.48712 -1.64469,3.74883 0.272636,1.24574 2.33386,1.18831 3.26276,1.14894z"/>
  <path class="fil0" d="M8.11794 14.2903c0.51333,0 0.513814,-0.796775 -0.000161323,-0.796775 -0.512039,0 -0.51333,0.796775 0.000161323,0.796775z"/>
  <path class="fil0" d="M9.84619 4.02808c0.237468,0.00274249 0.372818,-0.185522 0.398952,-0.398468 0.0177455,-0.145029 0.0353298,-0.290704 0.052914,-0.436379 0.0262957,-0.215205 -0.201977,-0.39621 -0.398307,-0.398468 -0.236822,-0.00241985 -0.372172,0.185522 -0.398468,0.398468 -0.0175842,0.145675 -0.0351684,0.291349 -0.0533979,0.436379 -0.0261343,0.215689 0.202622,0.396693 0.398307,0.398468z"/>
  <path class="fil0" d="M14.1885 3.22436c0.121315,-0.0995363 0.256665,-0.173422 0.398468,-0.238919 0.464288,-0.21585 0.0603348,-0.902764 -0.401856,-0.688043 -0.207623,0.0961486 -0.383626,0.218593 -0.559952,0.363622 -0.396048,0.326034 0.17068,0.886793 0.56334,0.56334z"/>
  <path class="fil0" d="M18.4639 3.07917c0.4609,0.219238 0.865498,-0.467676 0.401533,-0.68772 -0.218431,-0.103731 -0.422183,-0.222626 -0.620287,-0.361848 -0.419924,-0.295544 -0.818392,0.395242 -0.401694,0.68772 0.197943,0.139383 0.401694,0.25844 0.620449,0.361848z"/>
  <path class="fil0" d="M21.3247 4.07067c0.0996977,-0.0972778 0.193426,-0.142126 0.327163,-0.172938 0.49994,-0.115023 0.288123,-0.883244 -0.211656,-0.768221 -0.262311,0.0601735 -0.487196,0.190039 -0.678364,0.377819 -0.365881,0.360234 0.197459,0.923736 0.562856,0.56334z"/>
  <path class="fil0" d="M16.3057 6.30854c0.322646,0.398307 0.883244,-0.168421 0.562695,-0.563502 -0.0721114,-0.089373 -0.147933,-0.170035 -0.233918,-0.24747 -0.378948,-0.343296 -0.944063,0.217947 -0.562695,0.56334 0.0846946,0.0774351 0.161,0.158258 0.233918,0.247631z"/>
  <path class="fil0" d="M11.6214 6.19223c0.10857,-0.119379 0.216657,-0.20246 0.358944,-0.276992 0.454286,-0.237468 0.0517847,-0.925349 -0.40234,-0.688043 -0.197459,0.103408 -0.370398,0.237306 -0.520106,0.401856 -0.34378,0.378787 0.217947,0.944063 0.563502,0.563179z"/>
  <path class="fil0" d="M19.9634 6.40291c0.455254,0.233435 0.858723,-0.453479 0.401694,-0.688043 -0.166163,-0.0853399 -0.289091,-0.184392 -0.390402,-0.343134 -0.273765,-0.431539 -0.964067,-0.0324259 -0.688043,0.40234 0.170841,0.268119 0.392176,0.483163 0.67675,0.628837z"/>
  <path class="fil0" d="M7.63704 6.02832c0.0175842,-0.0961486 0.0351684,-0.173422 0.120508,-0.232628 0.417827,-0.290866 0.0200041,-0.981651 -0.40234,-0.688043 -0.251987,0.175358 -0.430249,0.401856 -0.487196,0.709176 -0.0921155,0.501231 0.675621,0.716436 0.769027,0.211495z"/>
  <path class="fil0" d="M23.504 5.55387c0.390886,0.326034 0.957614,-0.235048 0.563179,-0.563502 -0.11825,-0.0990524 -0.236661,-0.197459 -0.355556,-0.295867 -0.391531,-0.326841 -0.957937,0.234402 -0.562856,0.562856 0.118411,0.0988911 0.236661,0.197459 0.355233,0.296512z"/>
 </g>
</svg>
