<?xml version="1.0" encoding="UTF-8"?>
<!DOCTYPE svg PUBLIC "-//W3C//DTD SVG 1.1//EN" "http://www.w3.org/Graphics/SVG/1.1/DTD/svg11.dtd">
<!-- Creator: CorelDRAW -->
<svg xmlns="http://www.w3.org/2000/svg" xml:space="preserve" width="19.8753mm" height="18.3059mm" style="shape-rendering:geometricPrecision; text-rendering:geometricPrecision; image-rendering:optimizeQuality; fill-rule:evenodd; clip-rule:evenodd"
viewBox="0 0 5.19115 4.78124"
 xmlns:xlink="http://www.w3.org/1999/xlink">
 <defs>
  <style type="text/css">
   <![CDATA[
    .fil0 {fill:#424242}
   ]]>
  </style>
 </defs>
 <g id="Camada_x0020_1">
  <metadata id="CorelCorpID_0Corel-Layer"/>
  <path class="fil0" d="M2.36007 1.78497c-0.0928777,0.091415 -0.336146,0.119806 -0.452139,0.0787998 -0.133884,-0.047353 -0.149268,-0.247108 -0.0949149,-0.362552 0.064983,-0.151853 0.212031,-0.327475 0.402383,-0.259566 0.190822,0.0681695 0.298901,0.391779 0.144671,0.543319zm0.129548 0.0432263c0.142921,-0.214303 0.0560244,-0.54149 -0.161726,-0.673703 -0.256119,-0.155562 -0.524539,0.0438531 -0.626271,0.281663 -0.076658,0.162797 -0.0656882,0.432863 0.109933,0.528614 0.183927,0.100321 0.557815,0.0438531 0.678064,-0.136574z"/>
  <path class="fil0" d="M1.54269 3.4214c-0.179957,0.103952 -0.32562,-0.0678822 -0.342859,-0.238437 0.010787,-0.128843 0.0601772,-0.226213 0.187401,-0.265286 0.113537,-0.0348422 0.267115,0.00138428 0.309975,0.12375 0.0455247,0.130097 -0.0373235,0.312274 -0.154518,0.379973zm-0.122078 -0.64351c-0.21284,0.0280252 -0.320397,0.177188 -0.345627,0.375951 -0.00342153,0.00827959 -0.00535431,0.0176823 -0.00415285,0.0291222 -0.00091415,0.0108653 0.000652965,0.0201635 0.00386555,0.0281036 0.0313423,0.204535 0.179226,0.408625 0.411054,0.366235 0.215975,-0.0394391 0.375193,-0.284797 0.352601,-0.498839 -0.0216262,-0.205762 -0.221224,-0.326352 -0.417741,-0.300573z"/>
  <path class="fil0" d="M3.19506 2.24082c0.17792,0.0152794 0.294017,0.164208 0.238724,0.338523 -0.0982059,0.309218 -0.664796,0.221773 -0.551468,-0.11628 0.0620316,-0.125395 0.159585,-0.235407 0.312744,-0.222243zm0.347926 0.414162c0.0890905,-0.217542 -0.00454463,-0.439863 -0.22872,-0.518741 -0.240944,-0.0847809 -0.446053,0.0567557 -0.548412,0.271529 -0.00138428,0.00276857 -0.00109698,0.00524983 -0.00211561,0.00794005 -0.00130593,0.0026641 -0.00342153,0.00451851 -0.00451851,0.00754827 -0.171547,0.483089 0.60932,0.658058 0.783766,0.231724z"/>
  <path class="fil0" d="M2.99152 1.57895c0.071591,-0.00911538 0.189072,0.0756655 0.170816,0.156032 -0.0183352,0.0808631 0.106068,0.11534 0.124403,0.0342676 0.035469,-0.156476 -0.134902,-0.339829 -0.295218,-0.319274 -0.0348422,0.00451851 -0.0640428,0.0264581 -0.0645129,0.0645129 -0.000261186,0.0313945 0.029958,0.0690053 0.0645129,0.0644607z"/>
  <path class="fil0" d="M2.27412 2.66125c0.0743335,0.0363048 0.139761,-0.0749081 0.0651136,-0.111291 -0.0302976,-0.0148354 -0.0579571,-0.027085 -0.0714866,-0.0599944 -0.0131638,-0.0319691 -0.00921986,-0.0642256 0.0170554,-0.0876278 0.0620839,-0.055293 -0.0294095,-0.146316 -0.0912322,-0.0912061 -0.0547184,0.0487373 -0.0740723,0.128242 -0.0550057,0.198371 0.0199024,0.073341 0.0691098,0.119414 0.135555,0.151749z"/>
  <path class="fil0" d="M3.90324 2.48665c0.0745424,0.0353907 0.140152,-0.0758222 0.0650614,-0.111396 -0.101915,-0.0481888 -0.104318,-0.157103 -0.045159,-0.241858 0.0477448,-0.0681956 -0.0640428,-0.132787 -0.111396,-0.0651659 -0.0971089,0.139029 -0.0705724,0.341762 0.0914934,0.41842z"/>
  <path class="fil0" d="M0.963593 3.69267c-0.061457,0.0178651 -0.163006,-0.0103168 -0.142999,-0.0931389 0.0195367,-0.0807325 -0.104762,-0.115105 -0.124298,-0.0342937 -0.0433046,0.17886 0.141432,0.298457 0.301565,0.251835 0.0796094,-0.0232455 0.0457075,-0.147701 -0.0342676,-0.124403z"/>
  <path class="fil0" d="M1.34101 2.15115c0.0476403,0.00958552 0.0732365,0.0247082 0.0794005,0.0763968 0.00517148,0.0430173 -0.00652965,0.0979447 -0.0520543,0.113511 -0.0780423,0.026641 -0.0445844,0.151305 0.0342937,0.124403 0.101993,-0.0348422 0.153969,-0.1325 0.14676,-0.237914 -0.00726097,-0.106433 -0.0700239,-0.179853 -0.174054,-0.200669 -0.0810721,-0.0163502 -0.115731,0.107974 -0.0343459,0.124272z"/>
  <path class="fil0" d="M2.3175 3.02686c-0.0888293,0.0331706 -0.146133,0.114086 -0.139865,0.209993 0.00543266,0.082378 0.134432,0.083031 0.129,0 -0.0032387,-0.0492074 0.0184136,-0.0765536 0.0641211,-0.0921202 0.0494947,-0.0167942 0.0806281,-0.0130071 0.117847,0.0255179 0.0577743,0.0597854 0.14898,-0.0315251 0.0912061,-0.0912322 -0.074882,-0.0774938 -0.162249,-0.0895606 -0.262309,-0.0521588z"/>
  <path class="fil0" d="M4.0903 3.02226c-0.381018,0.187218 -0.760181,0.377884 -1.13603,0.574948 0.00148876,-0.00626846 0.00232455,-0.0133466 0.00415285,-0.0192494 0.0915979,-0.297334 0.473425,-0.400633 0.719985,-0.533028 0.317524,-0.170554 0.623346,-0.366809 0.924546,-0.56437 0.029305,-0.00976835 0.0527073,-0.0371145 0.0424688,-0.0756394 -0.0414502,-0.157391 -0.00276857,-0.329956 0.151488,-0.407345 0.135346,-0.0679083 0.214407,0.0164025 0.250242,0.140413 0.107713,0.479955 -0.613473,0.715466 -0.956854,0.884271zm-1.32306 1.5709c-0.0805236,0.0290177 -0.16614,-0.0982059 -0.18586,-0.145846 -0.0208949,-0.0507745 -0.0160107,-0.132604 -0.0197195,-0.187871 -0.00791393,-0.120903 0.000574609,-0.24225 -0.00524983,-0.362944 -0.00958552,-0.201792 -0.11406,-0.438609 -0.360907,-0.33134 -0.211169,0.091859 -0.146682,0.342937 -0.150548,0.527961 -0.00185442,0.0887248 -0.0190927,0.295688 -0.109385,0.10228 -0.0171338,-0.036775 0.00571997,-0.0938179 -0.00229844,-0.134537 -0.015645,-0.0796094 -0.0446889,-0.141145 -0.120877,-0.175987 -0.218273,-0.10006 -0.59109,0.153682 -0.785046,0.224097 -0.195524,0.0709381 -0.606761,0.298797 -0.800613,0.210255 -0.126492,-0.0576959 -0.0751954,-0.0666024 -0.0181524,-0.184371 0.0438792,-0.0907621 0.0878107,-0.18142 0.131585,-0.272286 0.256328,-0.531644 0.497637,-1.06799 0.725705,-1.61227 0.221956,-0.530077 0.543058,-1.02202 0.719698,-1.57007 0.564553,0.0760312 1.07951,0.308016 1.5569,0.614492 0.423017,0.271607 0.979368,0.602033 1.15423,1.10006 -0.416461,0.269048 -0.848514,0.494242 -1.27882,0.737589 -0.34837,0.197091 -0.416931,0.422468 -0.394808,0.813777 0.00488417,0.0862436 0.0590541,0.605638 -0.0558415,0.647009zm-0.614936 -0.669863c-0.000835795,-0.0544572 0.00394391,-0.104579 0.0232194,-0.141798 0.0622928,-0.120616 0.176614,-0.0448717 0.227754,0.0442188 -0.0836578,0.0325176 -0.16742,0.0650614 -0.250973,0.097579zm-1.89597 0.588687c0.0910233,-0.0167681 0.185468,-0.0643039 0.260559,-0.0892733 0.254604,-0.0846764 0.513596,-0.167159 0.760991,-0.271372 0.128634,-0.0541699 0.379163,-0.226657 0.496645,-0.0999558 -0.282055,0.137932 -1.17186,0.63954 -1.51819,0.460601zm2.44807 -4.26751c0.353097,0.0960119 0.696478,0.230314 1.0117,0.417244 0.440333,0.261212 1.01768,0.68718 1.24437,1.19524 -0.0545617,-0.0168465 -0.116855,-0.0165853 -0.186513,0.00903703 -0.133962,0.0494686 -0.215217,0.156633 -0.250529,0.281114 -0.227859,-0.391047 -0.657588,-0.659729 -1.02534,-0.904539 -0.521954,-0.347455 -1.08625,-0.607205 -1.71011,-0.690941 -0.208792,-0.537233 0.649856,-0.379607 0.916423,-0.307155zm2.46716 1.85923c-0.0716955,-0.455142 -0.375115,-0.747044 -0.711966,-1.03409 -0.364694,-0.310681 -0.723119,-0.57803 -1.17037,-0.762741 -0.367175,-0.151618 -0.926478,-0.376969 -1.33615,-0.285816 -0.258522,0.057487 -0.362108,0.350172 -0.279182,0.58759 -0.163267,0.528431 -0.474157,0.998513 -0.689948,1.50595 -0.248675,0.585082 -0.504454,1.16364 -0.780893,1.73621 -0.0620055,0.128425 -0.250425,0.379425 -0.191919,0.545278 0.000652965,0.00342153 0,0.00645129 0.00127981,0.0100557 0.0730014,0.21237 0.27939,0.346176 0.49876,0.300285 0.44237,-0.092512 0.900778,-0.34184 1.31235,-0.536162 0.00794005,0.0863219 -0.0174994,0.174133 0.0687441,0.247839 0.158409,0.135346 0.25497,-0.0244992 0.275238,-0.171468 0.00718261,-0.0526028 0.000261186,-0.121425 -0.00663412,-0.191841 0.00433568,-0.00073132 0.00820123,-0.00036566 0.0129026,-0.00219396 0.0860607,-0.0333795 0.172017,-0.0668113 0.258078,-0.100165 -0.000470134,0.0431218 -0.00517148,0.0878107 -0.00470134,0.126414 0.00120145,0.108444 0.00339542,0.217542 0.0183352,0.325176 0.0239507,0.172853 0.123201,0.482253 0.355578,0.341553 0.2802,-0.169719 0.141981,-0.669132 0.138951,-0.996032 0.556065,-0.293024 1.13028,-0.551833 1.68423,-0.84807 0.357877,-0.191292 0.645886,-0.35806 0.547315,-0.797766z"/>
  <path class="fil0" d="M2.39103 0.41283c0.32387,0.061457 0.612742,0.181237 0.895972,0.348579 0.071591,0.042286 0.136548,-0.0691881 0.0651397,-0.111396 -0.293912,-0.173662 -0.590254,-0.2977 -0.926844,-0.361586 -0.0810721,-0.0153838 -0.11581,0.108941 -0.0342676,0.124403z"/>
  <path class="fil0" d="M3.5509 0.913889c0.0830049,0 0.0831877,-0.128895 0,-0.128895 -0.083031,0 -0.0831093,0.128895 0,0.128895z"/>
 </g>
</svg>
