<?xml version="1.0" encoding="UTF-8"?>
<!DOCTYPE svg PUBLIC "-//W3C//DTD SVG 1.1//EN" "http://www.w3.org/Graphics/SVG/1.1/DTD/svg11.dtd">
<!-- Creator: CorelDRAW -->
<svg xmlns="http://www.w3.org/2000/svg" xml:space="preserve" width="17.8266mm" height="18.107mm" style="shape-rendering:geometricPrecision; text-rendering:geometricPrecision; image-rendering:optimizeQuality; fill-rule:evenodd; clip-rule:evenodd"
viewBox="0 0 1.57482 1.5996"
 xmlns:xlink="http://www.w3.org/1999/xlink">
 <defs>
  <style type="text/css">
   <![CDATA[
    .fil0 {fill:#424242}
   ]]>
  </style>
 </defs>
 <g id="Camada_x0020_1">
  <metadata id="CorelCorpID_0Corel-Layer"/>
  <path class="fil0" d="M1.52723 0.281376c-0.00128978,0.0433137 -0.00271208,0.0866098 -0.00416971,0.129862 -0.00490294,0.145101 -0.0101592,0.29021 -0.0133572,0.435346 -0.00355132,0.160242 -0.0287639,0.319027 -0.0306368,0.479128 -0.000609555,0.0515471 0.0142141,0.0684027 -0.0446477,0.0946489 -0.0222267,0.00990306 -0.0549306,0.0109013 -0.079145,0.0167318 -0.0739858,0.0178538 -0.147495,0.0345591 -0.222382,0.0484287 -0.16299,0.0301951 -0.326986,0.052139 -0.492158,0.0656376 0.0525896,-0.146169 0.138219,-0.27687 0.217426,-0.409948 0.0840037,-0.141178 0.170083,-0.281075 0.258195,-0.419727 0.0881204,-0.138625 0.178282,-0.275934 0.270439,-0.4119 0.0230394,-0.0340026 0.0461937,-0.0679168 0.0694981,-0.101725 0.0220146,-0.0319795 0.0383931,-0.0918749 0.0732349,-0.0427925 0.0139226,0.0196383 -0.0014753,0.0891982 -0.00229687,0.11631zm-1.04212 1.2675c0.115683,-0.272939 0.285334,-0.515807 0.434984,-0.770486 0.0713356,-0.121452 0.131416,-0.247886 0.210862,-0.364443 0.0733939,-0.107644 0.154756,-0.213106 0.209864,-0.331722 0.0470241,-0.0052033 0.0915922,-0.00436406 0.135736,0.0106893 -0.038667,0.0394267 -0.0805142,0.125692 -0.104358,0.160693 -0.0616622,0.0904703 -0.122441,0.181594 -0.182319,0.273248 -0.112255,0.171939 -0.221366,0.345927 -0.327234,0.521823 -0.0982708,0.163334 -0.208432,0.325582 -0.269785,0.507238 -0.035681,0.00368383 -0.0718215,-0.00320679 -0.10775,-0.0070408zm-0.0130745 -0.07797c-0.000742067,0 -0.00128978,-0.000318029 -0.00208485,-0.000220853 -0.0383401,0.00383401 -0.0307693,0.0101858 -0.036538,-0.0418826 -0.00621923,-0.0562911 -0.00295943,-0.0422978 0.0318382,-0.0682525 0.0186135,-0.0139049 0.0382871,-0.0282339 0.0478103,-0.0503369 0.0171824,-0.0398243 -0.00196118,-0.0832352 0.0134367,-0.124349 0.0182336,-0.0487379 0.0535525,-0.0516973 0.0898873,-0.0842069 0.0151417,-0.0135516 0.0276508,-0.0248062 0.0347623,-0.0438173 0.00379868,-0.0101858 0.00133395,-0.0202567 0.00440823,-0.0300979 0.014806,-0.0473421 0.0406458,-0.0763534 0.0802846,-0.115347 0.0516797,-0.0507962 0.041273,-0.0713356 0.0526867,-0.14192 0.0111398,-0.0688444 0.0826874,-0.0813447 0.11078,-0.145295 0.0104684,-0.0238433 0.00263257,-0.038455 0.016935,-0.0663178 0.0174209,-0.0339672 0.0271031,-0.02546 0.0432166,-0.050487 0.0127211,-0.0197619 0.0205128,-0.0320326 0.0259458,-0.0569095 0.00610438,-0.028013 -0.00320679,-0.0666888 0.00730582,-0.0925287 0.0164491,-0.0404515 0.0606728,-0.0563441 0.0907707,-0.0841362 0.0165993,-0.015336 0.0309813,-0.0287728 0.0390027,-0.0501779 0.00468209,-0.0125003 -0.00199651,-0.0258045 0.00164315,-0.0376776 0.00204068,-0.0115992 0.00407253,-0.0231543 0.00611322,-0.0347535 0.0383666,-0.0127476 0.0694539,0.00380751 0.0932354,0.0496478 1.76683e-005,3.53365e-005 6.18389e-005,6.18389e-005 7.95072e-005,0.000123678 -0.0416352,0.064604 -0.0872724,0.126964 -0.130259,0.189951 -0.0865745,0.126902 -0.151885,0.265678 -0.230465,0.397474 -0.134491,0.225544 -0.280943,0.443076 -0.390795,0.681518zm-0.116619 0.0762209c-0.0185428,-0.000742067 -0.0387907,-0.000212019 -0.0569271,-0.00401953 -0.00901081,-0.001864 -0.0174739,-0.00535348 -0.025831,-0.00918749 0.111107,-0.270916 0.259149,-0.522106 0.398172,-0.779126 0.0688355,-0.127247 0.133219,-0.252647 0.215049,-0.372261 0.0684645,-0.100073 0.142654,-0.198459 0.192628,-0.309433 0.000185517,-0.000441706 0.00010601,-0.00081274 0.000273858,-0.00121911 0.0579607,-0.0212549 0.157203,-0.0218468 0.218132,0.00118377 -0.0142141,0.0293558 -0.0298859,0.0579696 -0.0466972,0.0859561 -0.0297092,-0.045752 -0.0865921,-0.0792245 -0.141355,-0.0451866 -0.0210606,0.0130833 -0.0196029,0.0216524 -0.0286667,0.0468651 -0.0151682,0.0422625 -0.0129773,0.0692242 -0.0497273,0.100727 -0.0169704,0.0145233 -0.0395857,0.0241878 -0.0551073,0.0403896 -0.0212284,0.0220942 -0.0207425,0.0275801 -0.0262815,0.0571215 -0.00581286,0.0309194 0.00537115,0.072431 -0.0102564,0.101107 -0.0117406,0.0215023 -0.0407342,0.028013 -0.0556285,0.0449392 -0.0382164,0.0434374 -0.010972,0.0906205 -0.0430487,0.135878 -0.0237285,0.033499 -0.0672454,0.0346209 -0.0863448,0.0710882 -0.0371475,0.0708055 0.0164315,0.102246 -0.0630933,0.17178 -0.0350715,0.0306633 -0.0663178,0.0330926 -0.0781379,0.0870427 -0.00385168,0.0175799 0.00383401,0.0412907 -0.000636057,0.0569713 -0.0116787,0.0409462 -0.0388525,0.0481813 -0.0705405,0.0704257 -0.0252126,0.0177654 -0.0513705,0.0340379 -0.0631198,0.0642948 -0.00891364,0.0229422 -0.00175799,0.0469711 -0.00381634,0.0704345 -0.00516797,0.0588971 -0.02599,0.0832705 -0.0679786,0.113872 -0.0269441,0.0196648 -0.0513528,0.0395504 -0.0580932,0.0738356 -0.0146823,0.0745424 0.0454958,0.0961683 0.104207,0.0947372 -0.00459375,0.0105303 -0.00940835,0.0210076 -0.0138519,0.031635 -0.0277657,0.000839242 -0.0555843,0.00130745 -0.0833235,0.00015018zm-0.0969369 -0.0906823c-0.0392854,0.00055655 -0.053897,0.00230571 -0.0661323,-0.0383313 -0.0134985,-0.0448509 -0.000733233,-0.0354072 0.0243469,-0.0632347 0.0197089,-0.0219086 0.0300537,-0.0396741 0.0355927,-0.0684733 0.0127653,-0.0661941 -0.0132424,-0.111566 0.053155,-0.155914 0.0221118,-0.0147442 0.0492679,-0.0267762 0.065187,-0.0490559 0.0110603,-0.0154597 0.0110162,-0.0288611 0.0178538,-0.0452484 0.000759735,-0.0114755 0.000229687,-0.0229422 -0.00159898,-0.0343736 0.0265377,-0.029453 0.0530666,-0.0588706 0.0795955,-0.0883236 0.00708497,-0.00695246 0.0213433,-0.0096292 0.0275448,-0.0182336 0.0390027,-0.0541355 0.00593653,-0.133227 0.0479075,-0.179819 0.02258,-0.0250889 0.0579165,-0.0301685 0.0771926,-0.0613619 0.0134985,-0.0218203 0.00749134,-0.0394886 0.0145321,-0.0618036 0.0233751,-0.0740212 0.0795778,-0.0884738 0.0886593,-0.169006 0.00566268,-0.0502397 0.00444357,-0.0754523 0.0449392,-0.110851 0.0234281,-0.0204775 0.0545949,-0.0348506 0.0732349,-0.0607435 0.0141699,-0.0197001 0.0138784,-0.0303276 0.0178803,-0.0531638 0.00511496,-0.0293293 -0.0047881,-0.0450364 0.0202125,-0.0611852 0.0352835,-0.0227125 0.0790655,0.00128095 0.0919721,0.0390822 0.000291526,0.00081274 0.000848076,0.00130745 0.00120144,0.00205835 -0.0421211,0.0676606 -0.0895692,0.132424 -0.134385,0.197743 -0.085532,0.124817 -0.15071,0.258601 -0.223035,0.391184 -0.124102,0.227496 -0.252515,0.451512 -0.355856,0.689053zm-0.208609 0.0412554c0.107246,-0.263089 0.243257,-0.511072 0.375618,-0.762067 0.0672012,-0.12737 0.13154,-0.251658 0.213009,-0.370742 0.0672277,-0.0982267 0.139835,-0.194969 0.189757,-0.303514 0.0677224,-0.0294795 0.138042,-0.0211312 0.204201,0.00697896 -0.0107688,0.0225624 -0.0222267,0.0447537 -0.0346298,0.0664768 -0.0275006,-0.0429162 -0.0752314,-0.0597099 -0.130842,-0.0395504 -0.0185605,0.0067051 -0.0302481,0.0119702 -0.0413172,0.027589 -0.0244352,0.0344619 -0.00333047,0.0756378 -0.0314672,0.114031 -0.0150887,0.020663 -0.0458491,0.0342764 -0.0663178,0.0503015 -0.0718038,0.0561851 -0.0270943,0.134844 -0.0845779,0.200508 -0.0302304,0.0345591 -0.0397271,0.0321651 -0.0549925,0.0774135 0.00515913,0.0265819 0.000194351,0.0518563 -0.014912,0.075735 -0.016617,0.0141434 -0.0344354,0.0264229 -0.0534906,0.0369002 -0.00795955,0.00741183 -0.0200888,0.0096292 -0.0265642,0.0190729 -0.0214404,0.0314142 -0.0078182,0.0747014 -0.0168025,0.10873 -0.0220588,0.0836769 -0.0787916,0.0672542 -0.115436,0.126063 -0.027907,0.0447802 -0.00345414,0.09661 -0.0390645,0.135348 -0.0276508,0.0300714 -0.0735618,0.0381193 -0.0979175,0.0731466 -0.0307604,0.0442501 -0.00985005,0.0975729 -0.0268911,0.146726 -0.0168025,0.0484905 -0.0709469,0.073765 -0.0796485,0.125127 -0.01129,0.0666535 0.0661765,0.0849225 0.122591,0.0876611 -0.00321562,0.00766802 -0.00655492,0.0152124 -0.00970871,0.0229069 -0.000733233,0.000432872 -0.00130745,0.0010601 -0.00196118,0.00159014 -0.00129862,6.18389e-005 -0.00243822,-0.000282692 -0.00378984,0 -0.0542415,0.0110603 -0.124605,0.00177566 -0.174845,-0.0264317zm1.47932 -1.42875c-0.00124561,-0.00096292 -0.00215553,-0.00211136 -0.00378984,-0.00289759 -0.0636676,-0.0306279 -0.126637,-0.034992 -0.195676,-0.0261755 -0.0731466,-0.0354955 -0.193185,-0.03531 -0.269891,-0.00685528 -0.081963,-0.0366528 -0.166674,-0.0464675 -0.25058,-0.0105303 -0.0047616,0.000123678 -0.00916099,0.00218203 -0.0126593,0.00657259 -0.00359549,0.00302127 -0.00568918,0.00663443 -0.00621039,0.010654 -0.0524836,0.114066 -0.129676,0.215694 -0.200393,0.318886 -0.085002,0.124005 -0.149897,0.256455 -0.220182,0.389055 -0.131151,0.247453 -0.263407,0.492971 -0.368162,0.753101 -0.00441706,0.010972 0.000671394,0.0190464 0.00859561,0.0231277 0.000547716,0.000468209 0.000803906,0.0010866 0.00143113,0.0015283 0.0598159,0.0428455 0.153634,0.055284 0.224634,0.0408225 0.00085691,-0.000185517 0.00132512,-0.000689062 0.00210252,-0.000936418 0.0373595,0.0145851 0.0668655,0.0229687 0.108377,0.0249652 0.0353542,0.00171382 0.0707614,0.00121911 0.106124,0 0.0524836,0.000839242 0.103138,0.0143025 0.155445,0.00732349 0.000167848,0 0.000273858,6.18389e-005 0.000450541,6.18389e-005 0.199793,-0.0149562 0.398207,-0.0423861 0.594758,-0.081274 0.0865656,-0.017147 0.174916,-0.0354072 0.260624,-0.0558847 0.0354337,-0.00847193 0.045752,-0.0103094 0.0590738,-0.0447802 0.0109101,-0.0282692 -0.00105126,-0.0805319 -0.000291526,-0.110665 0.00133395,-0.0533846 0.00616622,-0.106619 0.0111487,-0.159756 0.00871928,-0.0928732 0.016458,-0.185022 0.0187549,-0.278328 0.00466442,-0.188829 0.011608,-0.377597 0.0174032,-0.566427 0.00103359,-0.0339319 0.0232956,-0.222823 -0.0410875,-0.231587z"/>
  <path class="fil0" d="M0.958503 1.35811c-0.0280837,0 -0.0281279,0.0436318 0,0.0436318 0.0280749,0 0.028119,-0.0436229 0,-0.0436318z"/>
  <path class="fil0" d="M1.02699 1.14701c-0.0280749,0 -0.0281279,0.0436053 0,0.0436053 0.0280572,0 0.028119,-0.0436053 0,-0.0436053z"/>
  <path class="fil0" d="M1.15538 1.2554c-0.0280749,0 -0.028119,0.0436583 0,0.0436583 0.0280749,0 0.028119,-0.0436583 0,-0.0436583z"/>
  <path class="fil0" d="M1.35512 1.12416c-0.0280749,0 -0.028119,0.0436318 0,0.0436318 0.0280749,0 0.028119,-0.0436229 0,-0.0436318z"/>
  <path class="fil0" d="M1.19818 1.05282c-0.028066,0 -0.028119,0.0436318 0,0.0436318 0.0280837,0 0.0281279,-0.0436318 0,-0.0436318z"/>
  <path class="fil0" d="M1.14112 0.861628c-0.0280749,0 -0.028119,0.0436671 0,0.0436671 0.0280749,0 0.028119,-0.0436583 0,-0.0436671z"/>
  <path class="fil0" d="M1.33515 0.95095c0.028066,0 0.028119,-0.0436583 0,-0.0436583 -0.0280837,0 -0.0281279,0.0436583 0,0.0436583z"/>
  <path class="fil0" d="M1.28665 0.721828c-0.0280837,0 -0.0281279,0.0436318 0,0.0436318 0.0280749,0 0.028119,-0.0436318 0,-0.0436318z"/>
  <path class="fil0" d="M1.39791 0.556338c-0.0280749,0 -0.028119,0.0436318 0,0.0436318 0.0280749,0 0.028119,-0.0436318 0,-0.0436318z"/>
  <path class="fil0" d="M1.4293 0.784621c-0.028066,0 -0.028119,0.0436318 0,0.0436318 0.0280837,0 0.0281279,-0.0436318 0,-0.0436318z"/>
  <path class="fil0" d="M1.33368 1.32761c-0.0280749,0 -0.028119,0.0436318 0,0.0436318 0.0280749,-8.83413e-006 0.028119,-0.0436318 0,-0.0436318z"/>
 </g>
</svg>
